<?xml version="1.0" standalone="no"?>
<svg viewBox="0 0 200 200" xmlns="http://www.w3.org/2000/svg">
  <path fill="#DAC4F9" d="M38.9,-65.4C48.4,-54.4,52.7,-40.2,55.9,-27.3C59.1,-14.3,61.2,-2.6,63.7,12.1C66.2,26.9,69.1,44.6,61.8,54.2C54.5,63.7,37,65,21.6,66.1C6.2,67.2,-7,68,-21,66.3C-35,64.6,-49.8,60.2,-60.6,50.8C-71.4,41.4,-78.3,26.8,-79.8,11.9C-81.3,-3,-77.3,-18.2,-69,-29.5C-60.7,-40.8,-48.1,-48,-35.9,-57.7C-23.7,-67.4,-11.9,-79.6,1.4,-81.8C14.7,-84,29.4,-76.3,38.9,-65.4Z" transform="translate(100 100)" />
</svg>
